<svg xmlns="http://www.w3.org/2000/svg" width="316.997" height="67.839" viewBox="0 0 316.997 67.839">
  <g id="Group_48" data-name="Group 48" transform="translate(-1163.716 -345.212)">
    <g id="Group_33" data-name="Group 33" transform="translate(1176.731 377.037)">
      <path id="Path_430" data-name="Path 430" d="M362.21,792.994a21.479,21.479,0,0,1-6.84-1.068,14.971,14.971,0,0,1-9.35-8.87,21.045,21.045,0,0,1-1.337-7.8,20.175,20.175,0,0,1,1.39-7.748,16.635,16.635,0,0,1,3.74-5.718,16.382,16.382,0,0,1,5.557-3.58A18.092,18.092,0,0,1,362,756.98a14.665,14.665,0,0,1,6.625,1.39,16.573,16.573,0,0,1,4.7,3.206l-4.809,5.878a12.168,12.168,0,0,0-2.726-1.817,7.258,7.258,0,0,0-3.474-.748,7.627,7.627,0,0,0-3.258.7,7.823,7.823,0,0,0-2.618,1.976,9.347,9.347,0,0,0-1.764,3.153,14.071,14.071,0,0,0-.588,4.222q0,4.917,2.191,7.535t6.893,2.618a6.37,6.37,0,0,0,1.443-.16,3.527,3.527,0,0,0,1.228-.482v-4.809h-5.128v-7.48h13.251v16.564a16.182,16.182,0,0,1-4.97,3.047A18.259,18.259,0,0,1,362.21,792.994Zm18.514-.64V757.622H393.44a24.109,24.109,0,0,1,5.4.587,11.609,11.609,0,0,1,4.488,1.923,9.367,9.367,0,0,1,3.047,3.581,11.426,11.426,0,0,1,1.175,5.45,11.963,11.963,0,0,1-1.175,5.5,10.639,10.639,0,0,1-3.047,3.793,13.975,13.975,0,0,1-4.435,2.191,19.581,19.581,0,0,1-5.236.7h-3.74v11.007Zm9.19-18.273h3.313a5.476,5.476,0,0,0,4.008-1.283,4.808,4.808,0,0,0,1.336-3.634,3.687,3.687,0,0,0-1.443-3.313,7.4,7.4,0,0,0-4.114-.962h-3.1Zm33.8,18.914a21.592,21.592,0,0,1-6.84-1.175,18.536,18.536,0,0,1-6.305-3.793l5.236-6.305a18.642,18.642,0,0,0,4.008,2.458,10.783,10.783,0,0,0,4.114.908,5.316,5.316,0,0,0,2.992-.642,2.055,2.055,0,0,0,.963-1.816,1.729,1.729,0,0,0-.321-1.069,3.171,3.171,0,0,0-.961-.8,7.72,7.72,0,0,0-1.443-.695q-.855-.376-1.978-.8l-4.328-1.816a13.665,13.665,0,0,1-2.673-1.39,11.425,11.425,0,0,1-2.244-2.083,9.444,9.444,0,0,1-2.084-6.2,9.2,9.2,0,0,1,.962-4.169,10.379,10.379,0,0,1,2.673-3.419,12.636,12.636,0,0,1,4.061-2.352,15.527,15.527,0,0,1,5.236-.856,17.372,17.372,0,0,1,6.037,1.122,14.876,14.876,0,0,1,5.5,3.527l-4.6,5.772a16.371,16.371,0,0,0-3.419-1.871,9.421,9.421,0,0,0-3.527-.641,5.133,5.133,0,0,0-2.673.588,1.933,1.933,0,0,0-.961,1.764,2.124,2.124,0,0,0,1.335,1.923q1.389.641,3.795,1.549l4.222,1.657a11.415,11.415,0,0,1,5.023,3.581,9.471,9.471,0,0,1,1.763,5.931,10.207,10.207,0,0,1-.909,4.22,10.375,10.375,0,0,1-2.671,3.581,13.131,13.131,0,0,1-4.222,2.4A16.927,16.927,0,0,1,423.717,792.994Z" transform="translate(-344.683 -756.98)" fill="#003ff1"/>
      <path id="Path_431" data-name="Path 431" d="M409.363,769.8a7.4,7.4,0,0,0,2.1,1.465,6.082,6.082,0,0,0,2.517.536,4.279,4.279,0,0,0,2.637-.708,2.316,2.316,0,0,0,.928-1.905,2.183,2.183,0,0,0-.22-1.026,2.043,2.043,0,0,0-.612-.732,4.273,4.273,0,0,0-.928-.562c-.342-.162-.716-.334-1.124-.512l-2.3-1a10.537,10.537,0,0,1-1.22-.586,5.544,5.544,0,0,1-1.124-.831,4.134,4.134,0,0,1-.806-1.148,3.664,3.664,0,0,1-.318-1.562,3.716,3.716,0,0,1,.39-1.685,4.092,4.092,0,0,1,1.076-1.344,5.128,5.128,0,0,1,1.66-.9,7.213,7.213,0,0,1,4.909.244,6.668,6.668,0,0,1,2.149,1.417l-1.074,1.318a5.916,5.916,0,0,0-1.734-1.1,5.147,5.147,0,0,0-2.125-.416,3.8,3.8,0,0,0-2.319.636,1.979,1.979,0,0,0-.856,1.709,1.944,1.944,0,0,0,.244,1,3.393,3.393,0,0,0,.66.71,5.135,5.135,0,0,0,.928.512l1.026.44,2.247.976a9.055,9.055,0,0,1,1.368.684,4.376,4.376,0,0,1,1.124.88,3.366,3.366,0,0,1,.756,1.172,3.758,3.758,0,0,1,.294,1.539,4.147,4.147,0,0,1-.39,1.783,4.434,4.434,0,0,1-1.124,1.464,5.673,5.673,0,0,1-1.783.978,7.634,7.634,0,0,1-2.369.342,8.039,8.039,0,0,1-5.812-2.369Zm21.482-3.029-.758-2.441q-.414-1.344-.806-2.661-.39-1.343-.782-2.735h-.1q-.39,1.392-.782,2.735-.39,1.317-.806,2.661l-.756,2.441Zm.512,1.637h-5.812l-1.538,4.883h-2.076l5.4-16.02h2.3l5.4,16.02H432.87Zm7.732-11.137h9.792v1.71h-7.766V764.4h6.57v1.709h-6.57v7.18h-2.026Zm14.154,0h9.891v1.71h-7.84v5.031h6.618v1.734h-6.618v5.812h8.084v1.734H453.243ZM482.578,769.8a7.426,7.426,0,0,0,2.1,1.465,6.075,6.075,0,0,0,2.515.536,4.275,4.275,0,0,0,2.637-.708,2.316,2.316,0,0,0,.928-1.905,2.183,2.183,0,0,0-.22-1.026,2.054,2.054,0,0,0-.61-.732,4.312,4.312,0,0,0-.928-.562c-.342-.162-.717-.334-1.124-.512l-2.3-1a10.424,10.424,0,0,1-1.222-.586,5.545,5.545,0,0,1-1.124-.831,4.134,4.134,0,0,1-.806-1.148,3.9,3.9,0,0,1,.074-3.247,4.067,4.067,0,0,1,1.074-1.344,5.119,5.119,0,0,1,1.661-.9,7.212,7.212,0,0,1,4.909.244,6.676,6.676,0,0,1,2.148,1.417l-1.074,1.318a5.917,5.917,0,0,0-1.734-1.1,5.147,5.147,0,0,0-2.125-.416,3.806,3.806,0,0,0-2.319.636,1.979,1.979,0,0,0-.856,1.709,1.928,1.928,0,0,0,.246,1,3.344,3.344,0,0,0,.658.71,5.139,5.139,0,0,0,.928.512l1.026.44,2.247.976a9.057,9.057,0,0,1,1.368.684,4.375,4.375,0,0,1,1.124.88,3.393,3.393,0,0,1,.758,1.172,3.784,3.784,0,0,1,.292,1.539,4.147,4.147,0,0,1-.39,1.783,4.434,4.434,0,0,1-1.124,1.464,5.655,5.655,0,0,1-1.783.978,7.63,7.63,0,0,1-2.368.342,8.032,8.032,0,0,1-5.812-2.369Zm19.113,3.785A5.315,5.315,0,0,1,499.2,773a5.929,5.929,0,0,1-1.953-1.661,8.631,8.631,0,0,1-1.27-2.637,12.857,12.857,0,0,1-.44-3.491,12.339,12.339,0,0,1,.44-3.445,8,8,0,0,1,1.27-2.588,5.67,5.67,0,0,1,1.953-1.637,5.5,5.5,0,0,1,2.491-.562,5.244,5.244,0,0,1,2.467.588,5.385,5.385,0,0,1,1.953,1.636,7.409,7.409,0,0,1,1.27,2.589,11.628,11.628,0,0,1,.464,3.419,12.23,12.23,0,0,1-.464,3.491,7.953,7.953,0,0,1-1.27,2.637A5.625,5.625,0,0,1,504.158,773,5.264,5.264,0,0,1,501.69,773.587Zm0-1.783a3.119,3.119,0,0,0,1.661-.464,3.8,3.8,0,0,0,1.27-1.318,7.316,7.316,0,0,0,.83-2.075,11.735,11.735,0,0,0,.294-2.735,11.293,11.293,0,0,0-.294-2.687,6.621,6.621,0,0,0-.83-2.027,3.653,3.653,0,0,0-1.27-1.27,3.119,3.119,0,0,0-1.661-.464,3.162,3.162,0,0,0-1.685.464,3.942,3.942,0,0,0-1.27,1.27,7.041,7.041,0,0,0-.806,2.027,11.294,11.294,0,0,0-.292,2.687,11.735,11.735,0,0,0,.292,2.735,7.809,7.809,0,0,0,.806,2.075A4.1,4.1,0,0,0,500,771.34,3.162,3.162,0,0,0,501.69,771.8Zm10.589-14.53h2V771.56h7.938v1.734H512.28Zm13.3,0h2.051v10.013a7.981,7.981,0,0,0,.244,2.124,4.126,4.126,0,0,0,.708,1.393,2.878,2.878,0,0,0,1.074.756,3.821,3.821,0,0,0,2.687,0,2.865,2.865,0,0,0,1.074-.756,3.617,3.617,0,0,0,.708-1.393,7.3,7.3,0,0,0,.27-2.124V757.274h1.978v9.963a9.032,9.032,0,0,1-.414,2.931,5.4,5.4,0,0,1-1.1,1.978,4.118,4.118,0,0,1-1.71,1.1,6.47,6.47,0,0,1-2.149.342,6.686,6.686,0,0,1-2.173-.342,4.308,4.308,0,0,1-1.734-1.1,5.652,5.652,0,0,1-1.124-1.978,9.551,9.551,0,0,1-.39-2.931Zm19.015,1.71h-5.276v-1.71h12.6v1.71h-5.275v14.31h-2.051Zm10.662,12.576h3.981V758.983h-3.981v-1.71H565.27v1.71h-3.981V771.56h3.981v1.734H555.256Zm19.649,2.027a5.3,5.3,0,0,1-2.49-.586,5.918,5.918,0,0,1-1.955-1.661,8.668,8.668,0,0,1-1.27-2.637,12.922,12.922,0,0,1-.44-3.491,12.4,12.4,0,0,1,.44-3.445,8.034,8.034,0,0,1,1.27-2.588,5.66,5.66,0,0,1,1.955-1.637,5.489,5.489,0,0,1,2.49-.562,5.244,5.244,0,0,1,2.467.588,5.371,5.371,0,0,1,1.954,1.636,7.379,7.379,0,0,1,1.27,2.589,11.626,11.626,0,0,1,.464,3.419,12.228,12.228,0,0,1-.464,3.491,7.92,7.92,0,0,1-1.27,2.637A5.61,5.61,0,0,1,577.372,773,5.263,5.263,0,0,1,574.905,773.587Zm0-1.783a3.115,3.115,0,0,0,1.661-.464,3.8,3.8,0,0,0,1.27-1.318,7.27,7.27,0,0,0,.83-2.075,11.732,11.732,0,0,0,.294-2.735,11.29,11.29,0,0,0-.294-2.687,6.582,6.582,0,0,0-.83-2.027,3.653,3.653,0,0,0-1.27-1.27,3.115,3.115,0,0,0-1.661-.464,3.152,3.152,0,0,0-1.684.464,3.946,3.946,0,0,0-1.271,1.27,7.041,7.041,0,0,0-.806,2.027,11.379,11.379,0,0,0-.292,2.687,11.825,11.825,0,0,0,.292,2.735,7.809,7.809,0,0,0,.806,2.075,4.107,4.107,0,0,0,1.271,1.318A3.152,3.152,0,0,0,574.905,771.8Zm9.345-14.53h2.075l5.2,10.111,1.612,3.271h.05q-.048-1.2-.172-2.491-.1-1.317-.1-2.588v-8.3h1.928v16.02h-2.075l-5.2-10.109-1.612-3.273h-.05q.048,1.245.146,2.515.123,1.245.122,2.491v8.376h-1.928ZM599.723,769.8a7.4,7.4,0,0,0,2.1,1.465,6.079,6.079,0,0,0,2.515.536,4.273,4.273,0,0,0,2.637-.708,2.314,2.314,0,0,0,.929-1.905,2.182,2.182,0,0,0-.22-1.026,2.059,2.059,0,0,0-.612-.732,4.279,4.279,0,0,0-.928-.562c-.342-.162-.716-.334-1.124-.512l-2.3-1a10.532,10.532,0,0,1-1.22-.586,5.543,5.543,0,0,1-1.124-.831,4.135,4.135,0,0,1-.806-1.148,3.664,3.664,0,0,1-.318-1.562,3.716,3.716,0,0,1,.39-1.685,4.092,4.092,0,0,1,1.075-1.344,5.128,5.128,0,0,1,1.66-.9,7.212,7.212,0,0,1,4.909.244,6.667,6.667,0,0,1,2.149,1.417l-1.074,1.318a5.916,5.916,0,0,0-1.734-1.1,5.147,5.147,0,0,0-2.125-.416,3.8,3.8,0,0,0-2.32.636,1.979,1.979,0,0,0-.855,1.709,1.943,1.943,0,0,0,.244,1,3.394,3.394,0,0,0,.66.71,5.083,5.083,0,0,0,.928.512l1.026.44,2.247.976a9.061,9.061,0,0,1,1.368.684,4.376,4.376,0,0,1,1.124.88,3.389,3.389,0,0,1,.756,1.172,3.757,3.757,0,0,1,.294,1.539,4.123,4.123,0,0,1-.392,1.783,4.408,4.408,0,0,1-1.122,1.464,5.673,5.673,0,0,1-1.783.978,7.634,7.634,0,0,1-2.369.342,8.039,8.039,0,0,1-5.812-2.369ZM408.117,784.618a10.935,10.935,0,0,1,.514-3.469,7.724,7.724,0,0,1,1.49-2.613,6.281,6.281,0,0,1,2.271-1.636,7.019,7.019,0,0,1,2.881-.586,5.374,5.374,0,0,1,2.563.586,6.55,6.55,0,0,1,1.807,1.368l-1.148,1.294a5.168,5.168,0,0,0-1.416-1.05,3.805,3.805,0,0,0-1.807-.416,4.73,4.73,0,0,0-2.1.465,4.308,4.308,0,0,0-1.586,1.294,6.081,6.081,0,0,0-1.026,2.027,9.766,9.766,0,0,0-.342,2.685,10.139,10.139,0,0,0,.342,2.735,6.369,6.369,0,0,0,1.026,2.052,4.564,4.564,0,0,0,1.586,1.319,4.751,4.751,0,0,0,2.1.464,4.042,4.042,0,0,0,1.953-.464,6.332,6.332,0,0,0,1.636-1.319l1.173,1.246a7.15,7.15,0,0,1-2.149,1.709,5.924,5.924,0,0,1-2.735.61,6.963,6.963,0,0,1-2.809-.562,6.542,6.542,0,0,1-2.222-1.612,7.943,7.943,0,0,1-1.466-2.613A10.778,10.778,0,0,1,408.117,784.618Zm22.728,1.49-.758-2.443q-.414-1.343-.806-2.661-.39-1.344-.782-2.735h-.1q-.39,1.392-.782,2.735-.39,1.319-.806,2.661l-.756,2.443Zm.512,1.636h-5.812l-1.538,4.885h-2.076l5.4-16.021h2.3l5.4,16.021H432.87Zm6.462-11.137h2.075l5.2,10.111,1.612,3.273h.05q-.048-1.2-.172-2.491-.1-1.319-.1-2.589v-8.3h1.928v16.021h-2.076l-5.2-10.111-1.612-3.271h-.05q.048,1.245.146,2.515.123,1.245.122,2.49v8.377h-1.928Zm22.31,9.5-.756-2.443q-.417-1.343-.806-2.661-.392-1.344-.782-2.735h-.1q-.39,1.392-.782,2.735-.39,1.319-.806,2.661l-.758,2.443Zm.514,1.636h-5.812l-1.538,4.885h-2.077l5.4-16.021h2.3l5.4,16.021h-2.149Zm6.511-11.137h3.909a7.114,7.114,0,0,1,5.519,2.051,8.342,8.342,0,0,1,1.905,5.886,11.107,11.107,0,0,1-.49,3.419A6.82,6.82,0,0,1,476.6,790.5a6.232,6.232,0,0,1-2.3,1.588,8.579,8.579,0,0,1-3.151.538h-4Zm3.787,14.36a4.9,4.9,0,0,0,4.077-1.685,7.326,7.326,0,0,0,1.368-4.737,7.023,7.023,0,0,0-1.368-4.665,5.006,5.006,0,0,0-4.077-1.612h-1.759v12.7Zm18.476-4.859-.756-2.443q-.417-1.343-.806-2.661-.392-1.344-.782-2.735h-.1q-.39,1.392-.782,2.735-.39,1.319-.806,2.661l-.758,2.443Zm.514,1.636h-5.812l-1.539,4.885H480.5l5.4-16.021h2.3l5.4,16.021h-2.149Z" transform="translate(-305.998 -756.98)" fill="#003ff1"/>
    </g>
    <g id="Group_34" data-name="Group 34" transform="translate(1163.716 345.212)">
      <path id="Path_432" data-name="Path 432" d="M348.891,764.659a.879.879,0,0,0-.13-1.2,12.983,12.983,0,0,1-4.289-12.491.877.877,0,1,0-1.719-.352,14.737,14.737,0,0,0,4.87,14.178.877.877,0,0,0,1.236-.1l.032-.04Z" transform="translate(-333.019 -729.429)" fill="#003ff1"/>
      <path id="Path_433" data-name="Path 433" d="M365,745.63a14.744,14.744,0,0,0-20.511,3.751,14.918,14.918,0,0,0-1,1.661.877.877,0,1,0,1.56.8,13.462,13.462,0,0,1,.878-1.466,12.99,12.99,0,0,1,18.071-3.3,13.032,13.032,0,0,1,4.576,15.768.877.877,0,0,0,1.506.875.9.9,0,0,0,.108-.188A14.789,14.789,0,0,0,365,745.63Z" transform="translate(-332.444 -733.607)" fill="#003ff1"/>
      <path id="Path_434" data-name="Path 434" d="M341.5,746.705a24.153,24.153,0,0,0-.758,28.169.877.877,0,1,0,1.451-.984,22.417,22.417,0,1,1,38.977-3.316.877.877,0,1,0,1.6.726A24.171,24.171,0,0,0,341.5,746.705Z" transform="translate(-336.575 -737.153)" fill="#003ff1"/>
    </g>
    <path id="Path_435" data-name="Path 435" d="M358.039,754.284a5.046,5.046,0,1,1-5.045-5.047A5.045,5.045,0,0,1,358.039,754.284Zm-5.045-3.374a3.373,3.373,0,1,0,3.372,3.374A3.374,3.374,0,0,0,352.994,750.91Z" transform="translate(834.023 -384.629)" fill="#003ff1"/>
    <line id="Line_6" data-name="Line 6" x2="4.542" y2="8.738" transform="translate(1189.035 373.027)" fill="#3c6bb3"/>
  </g>
</svg>
