<svg xmlns="http://www.w3.org/2000/svg" xmlns:xlink="http://www.w3.org/1999/xlink" width="47.814" height="66.168" viewBox="0 0 47.814 66.168">
  <defs>
    <radialGradient id="radial-gradient" cx="0.5" cy="0.5" r="0.388" gradientTransform="translate(-0.611) scale(2.222 1)" gradientUnits="objectBoundingBox">
      <stop offset="0" stop-color="#ffba00"/>
      <stop offset="1" stop-color="#ffa100"/>
    </radialGradient>
    <linearGradient id="linear-gradient" y1="0.5" x2="1" y2="0.5" gradientUnits="objectBoundingBox">
      <stop offset="0" stop-color="#525956"/>
      <stop offset="1" stop-color="#2c2e2e"/>
    </linearGradient>
    <radialGradient id="radial-gradient-2" cx="0.5" cy="0.5" r="0.223" gradientTransform="translate(-0.656 157.261) scale(2.312 4.018)" gradientUnits="objectBoundingBox">
      <stop offset="0" stop-color="#ffe800"/>
      <stop offset="1" stop-color="#ffc552"/>
    </radialGradient>
    <linearGradient id="linear-gradient-2" y1="0.5" x2="1" y2="0.5" gradientUnits="objectBoundingBox">
      <stop offset="0"/>
      <stop offset="1" stop-color="#1b1c1c"/>
    </linearGradient>
    <linearGradient id="linear-gradient-4" y1="0.5" x2="1" y2="0.5" gradientUnits="objectBoundingBox">
      <stop offset="0" stop-color="#363b39"/>
      <stop offset="1" stop-color="#1b1c1c"/>
    </linearGradient>
    <linearGradient id="linear-gradient-7" x1="0" y1="0.5" y2="0.5" xlink:href="#linear-gradient-4"/>
    <linearGradient id="linear-gradient-8" x1="0" y1="0.5" y2="0.5" xlink:href="#linear-gradient-4"/>
    <radialGradient id="radial-gradient-3" cx="0.5" cy="0.5" r="0.604" gradientTransform="translate(0.154 -0.225) scale(0.692 1.096)" gradientUnits="objectBoundingBox">
      <stop offset="0" stop-color="#fff"/>
      <stop offset="1" stop-color="#d2d6d5"/>
    </radialGradient>
    <radialGradient id="radial-gradient-4" cx="0.5" cy="0.5" r="0.604" xlink:href="#radial-gradient-3"/>
    <linearGradient id="linear-gradient-11" x1="0.224" y1="0.289" x2="0.662" y2="0.697" gradientUnits="objectBoundingBox">
      <stop offset="0" stop-color="#363b39"/>
      <stop offset="1"/>
    </linearGradient>
    <linearGradient id="linear-gradient-12" y1="0.5" x2="1" y2="0.5" gradientUnits="objectBoundingBox">
      <stop offset="0" stop-color="#fffa61"/>
      <stop offset="1" stop-color="#ffc552"/>
    </linearGradient>
    <linearGradient id="linear-gradient-13" x1="0.35" y1="-0.943" x2="0.882" y2="3.925" xlink:href="#linear-gradient-12"/>
    <linearGradient id="linear-gradient-14" x1="-0.2" y1="0.123" x2="1.967" y2="1.6" xlink:href="#linear-gradient-4"/>
    <radialGradient id="radial-gradient-5" cx="0.5" r="0.774" gradientTransform="translate(0.243) scale(0.514 1)" xlink:href="#radial-gradient"/>
    <linearGradient id="linear-gradient-15" x1="0" y1="0.5" x2="1.008" y2="0.5" xlink:href="#linear-gradient-4"/>
    <linearGradient id="linear-gradient-16" x1="0.492" y1="0.271" x2="2.269" y2="1.732" xlink:href="#linear-gradient-4"/>
    <radialGradient id="radial-gradient-6" cx="0.5" r="0.759" gradientTransform="translate(0.237) scale(0.527 1)" xlink:href="#radial-gradient"/>
    <linearGradient id="linear-gradient-17" x1="-0.012" y1="0.5" y2="0.5" xlink:href="#linear-gradient-4"/>
    <linearGradient id="linear-gradient-18" x1="0" y1="0.5" y2="0.5" xlink:href="#linear-gradient-4"/>
    <linearGradient id="linear-gradient-19" x1="0.151" y1="-0.636" x2="0.455" y2="0.321" xlink:href="#linear-gradient-11"/>
    <radialGradient id="radial-gradient-7" cx="0.5" cy="0.5" r="1.898" gradientTransform="translate(0.122 -1.424) scale(0.263 0.263)" gradientUnits="objectBoundingBox">
      <stop offset="0" stop-color="#ffe800"/>
      <stop offset="0.086" stop-color="#cebc00"/>
      <stop offset="0.194" stop-color="#988a00"/>
      <stop offset="0.304" stop-color="#696000"/>
      <stop offset="0.412" stop-color="#433d00"/>
      <stop offset="0.519" stop-color="#262200"/>
      <stop offset="0.624" stop-color="#100f00"/>
      <stop offset="0.727" stop-color="#040300"/>
      <stop offset="0.824"/>
    </radialGradient>
    <radialGradient id="radial-gradient-8" cx="0.5" cy="0.5" r="2.357" gradientTransform="translate(0.132 -3.671) scale(0.212 0.212)" gradientUnits="objectBoundingBox">
      <stop offset="0" stop-color="#ffc900"/>
      <stop offset="0.086" stop-color="#cea200"/>
      <stop offset="0.194" stop-color="#987800"/>
      <stop offset="0.304" stop-color="#695300"/>
      <stop offset="0.412" stop-color="#433500"/>
      <stop offset="0.519" stop-color="#261e00"/>
      <stop offset="0.624" stop-color="#100d00"/>
      <stop offset="0.727" stop-color="#040300"/>
      <stop offset="0.824"/>
    </radialGradient>
  </defs>
  <g id="Group_77" data-name="Group 77" transform="translate(-205.684 -118.65) rotate(22)">
    <path id="Path_454" data-name="Path 454" d="M284.152,33.925c-.3-2.729-.783-4.139-1.64-5.273a1.269,1.269,0,0,1-1.059-.237l-3.092-1.971a1.52,1.52,0,0,1-.57-1.026c-.146-.054-.3-.105-.45-.155v2.6H264.658v-2.6c-.153.05-.3.1-.45.155a1.518,1.518,0,0,1-.57,1.026l-3.092,1.971a1.269,1.269,0,0,1-1.059.237c-.856,1.134-1.338,2.544-1.64,5.273-.8,7.219-.243,18.564-.276,21.358-.177,14.9.5,23.98,1.446,27.121a2.832,2.832,0,0,0,1.245,1.5,1.1,1.1,0,0,1,.49-.105c1.1,0,1.639.753,2.859.537.805-.143,1.078.553,1.171,1.045.722.119,1.447.206,2.135.271a.61.61,0,0,1,.5-.271h7.149a.611.611,0,0,1,.5.273c.514-.049,1.049-.11,1.588-.187.077-.49.332-1.281,1.186-1.13,1.22.216,1.757-.537,2.859-.537a.988.988,0,0,1,.74.284,3.048,3.048,0,0,0,1.536-1.675c.945-3.142,1.624-12.216,1.446-27.121C284.4,52.489,284.95,41.144,284.152,33.925Z" transform="translate(-1.286 -0.777)" fill="url(#radial-gradient)"/>
    <path id="Path_455" data-name="Path 455" d="M283.717,27.089v-2.6a23.22,23.22,0,0,0-12.683,0v2.6Z" transform="translate(-7.662)" fill="url(#linear-gradient)"/>
    <path id="Path_456" data-name="Path 456" d="M284.063,34.316c-.489-4.529-1.479-4.888-3.913-7.013-3.3-2.882-13.6-2.882-16.9,0-2.434,2.125-3.424,2.484-3.913,7.013-.75,6.949-.276,17.868-.307,20.558-.166,14.348.519,23.082,1.407,26.106,1.023,3.484,11.263,3.294,11.264,3.294s10.241.19,11.264-3.294c.888-3.024,1.574-11.758,1.407-26.106C284.34,52.184,284.814,41.265,284.063,34.316Z" transform="translate(-1.986 -0.72)" fill="url(#radial-gradient-2)"/>
    <path id="Path_457" data-name="Path 457" d="M269.74,70.331a16.528,16.528,0,0,0-4.241,1.188l.166.992a14.542,14.542,0,0,1,4.293-1.3,44.859,44.859,0,0,1,9.654,0,14.542,14.542,0,0,1,4.292,1.3l.166-.992a16.52,16.52,0,0,0-4.242-1.188A49.05,49.05,0,0,0,269.74,70.331Z" transform="translate(-5.071 -21.753)" fill="url(#linear-gradient-2)"/>
    <path id="Path_458" data-name="Path 458" d="M263.547,53.814a22.583,22.583,0,0,1,4.541-1.521,26.625,26.625,0,0,1,10.811,0,22.563,22.563,0,0,1,4.542,1.521,2.16,2.16,0,0,1,.713.438l0-.03a2.468,2.468,0,0,0,.055-.909c-.086-.167-.333-.324-.772-.523a22.528,22.528,0,0,0-4.542-1.521,26.625,26.625,0,0,0-10.811,0,22.548,22.548,0,0,0-4.541,1.521c-.439.2-.687.356-.772.523a2.47,2.47,0,0,0,.054.909l.006.03A2.135,2.135,0,0,1,263.547,53.814Z" transform="translate(-3.78 -12.692)" fill="url(#linear-gradient-2)"/>
    <path id="Path_459" data-name="Path 459" d="M268.531,62.171a49.05,49.05,0,0,1,10.089,0,16.52,16.52,0,0,1,4.242,1.188l1.374-8.206a2.16,2.16,0,0,0-.713-.438,22.563,22.563,0,0,0-4.542-1.521,26.625,26.625,0,0,0-10.811,0,22.584,22.584,0,0,0-4.541,1.521,2.136,2.136,0,0,0-.712.438l1.373,8.206A16.529,16.529,0,0,1,268.531,62.171Z" transform="translate(-3.862 -13.593)" fill="url(#linear-gradient-4)"/>
    <path id="Path_460" data-name="Path 460" d="M283.619,114.2c-.07-.356-.151-.713-.245-1.068,0,0-.12.065-.364.168a21.112,21.112,0,0,1-7.992,1.252,23.6,23.6,0,0,1-7.988-1.274c-.241-.09-.369-.146-.369-.146-.09.343-.169.689-.238,1.033a25.133,25.133,0,0,0-.347,6.6,20.545,20.545,0,0,0,4.422,1.355,35.6,35.6,0,0,0,9.039,0,20.532,20.532,0,0,0,4.422-1.355A25.144,25.144,0,0,0,283.619,114.2Zm-.285,5.7a18.2,18.2,0,0,1-4.114,1.354,30.767,30.767,0,0,1-8.406,0A18.2,18.2,0,0,1,266.7,119.9a27.366,27.366,0,0,1,.165-5.611,31.138,31.138,0,0,0,8.152,1.019,29.466,29.466,0,0,0,8.158-.973A27.39,27.39,0,0,1,283.335,119.9Z" transform="translate(-5.304 -41.911)" fill="url(#linear-gradient-2)"/>
    <path id="Path_461" data-name="Path 461" d="M267.422,115.311a27.366,27.366,0,0,0-.165,5.611,18.2,18.2,0,0,0,4.114,1.354,30.767,30.767,0,0,0,8.406,0,18.2,18.2,0,0,0,4.114-1.354,27.392,27.392,0,0,0-.159-5.565,29.465,29.465,0,0,1-8.158.973A31.137,31.137,0,0,1,267.422,115.311Z" transform="translate(-5.859 -42.932)" fill="url(#linear-gradient-4)"/>
    <g id="Group_69" data-name="Group 69" transform="translate(258.231 41.276)">
      <path id="Path_462" data-name="Path 462" d="M261.663,74.727l1.806.641-.311-8.484-1.724-10.052s-.149,2.578,0,6.273c.095,2.337.363,5.555.358,7.629C261.788,72.7,261.719,74.04,261.663,74.727Z" transform="translate(-261.369 -56.832)" fill="url(#linear-gradient-7)"/>
      <path id="Path_463" data-name="Path 463" d="M302.4,74.727l-1.807.641.311-8.484,1.724-10.052s.149,2.578,0,6.273c-.1,2.337-.363,5.555-.358,7.629C302.278,72.7,302.334,74.058,302.4,74.727Z" transform="translate(-279.732 -56.832)" fill="url(#linear-gradient-8)"/>
    </g>
    <g id="Group_70" data-name="Group 70" transform="translate(258.381 59.955)">
      <path id="Path_464" data-name="Path 464" d="M261.741,91.952l1.873.82.208,7.094a10.421,10.421,0,0,1-.862,2.335,10.133,10.133,0,0,1-1.22,2.121S261.535,94.608,261.741,91.952Z" transform="translate(-261.649 -91.952)" fill="url(#linear-gradient-7)"/>
      <path id="Path_465" data-name="Path 465" d="M302.262,91.952l-1.872.82-.209,7.094a10.4,10.4,0,0,0,.862,2.335,10.165,10.165,0,0,0,1.22,2.121S302.467,94.608,302.262,91.952Z" transform="translate(-279.688 -91.952)" fill="url(#linear-gradient-8)"/>
    </g>
    <g id="Group_71" data-name="Group 71" transform="translate(258.201 24.641)">
      <path id="Path_466" data-name="Path 466" d="M262.371,28.551l3.092-1.971a1.518,1.518,0,0,0,.57-1.026,7.293,7.293,0,0,0-2.2,1.207c-1.088.927-1.9,1.206-2.523,2.027A1.269,1.269,0,0,0,262.371,28.551Z" transform="translate(-261.312 -25.554)" fill="url(#radial-gradient-3)"/>
      <path id="Path_467" data-name="Path 467" d="M296.3,26.58l3.092,1.971a1.269,1.269,0,0,0,1.06.237c-.62-.822-1.436-1.1-2.523-2.027a7.289,7.289,0,0,0-2.2-1.207A1.52,1.52,0,0,0,296.3,26.58Z" transform="translate(-277.423 -25.554)" fill="url(#radial-gradient-4)"/>
    </g>
    <path id="Path_468" data-name="Path 468" d="M266.119,135.852c-1.22.216-1.756-.537-2.859-.537a1.1,1.1,0,0,0-.49.105,12.308,12.308,0,0,0,4.52,1.476C267.2,136.4,266.924,135.709,266.119,135.852Z" transform="translate(-3.793 -52.296)" fill="#f15a29"/>
    <path id="Path_469" data-name="Path 469" d="M294.788,135.852c-.853-.151-1.108.64-1.186,1.13a14.308,14.308,0,0,0,4.785-1.383.988.988,0,0,0-.74-.284C296.544,135.315,296.007,136.068,294.788,135.852Z" transform="translate(-18.227 -52.296)" fill="#f15a29"/>
    <path id="Path_470" data-name="Path 470" d="M290.069,54.844a22.563,22.563,0,0,0-4.542-1.521,21.625,21.625,0,0,0-2.538-.408,62.05,62.05,0,0,0-6.089,9.213,50.375,50.375,0,0,1,8.266.172,16.52,16.52,0,0,1,4.242,1.188l1.374-8.206A2.16,2.16,0,0,0,290.069,54.844Z" transform="translate(-10.409 -13.722)" fill="url(#linear-gradient-11)" style="mix-blend-mode: screen;isolation: isolate"/>
    <path id="Path_471" data-name="Path 471" d="M275.173,73.421c-6.622-.157-8.844,1.1-8.844,1.1s.08,16.8.586,18.464c.342,1.132,4.514,1.632,7.164,1.837h2.188c2.65-.2,6.822-.705,7.164-1.837.506-1.668.587-18.464.587-18.464S281.794,73.264,275.173,73.421Z" transform="translate(-5.459 -23.315)" fill="url(#linear-gradient-12)"/>
    <path id="Path_472" data-name="Path 472" d="M274.931,132c6.431-.21,9.277-2.119,9.277-2.119l-1.271-1.6c-4.015,2.352-9.16,1.872-9.16,1.872h0s-5.146.481-9.16-1.872l-1.271,1.6s2.846,1.909,9.277,2.119c.336.012,1.154.02,1.154.02h0C274.213,132.02,274.595,132.013,274.931,132Z" transform="translate(-4.063 -49.002)" fill="url(#linear-gradient-13)"/>
    <path id="Path_473" data-name="Path 473" d="M264.891,28.493a7.924,7.924,0,0,0-4.411,6.393,69.317,69.317,0,0,0-.37,7.2S261.476,31.033,264.891,28.493Z" transform="translate(-2.547 -2.289)" fill="#474747" style="mix-blend-mode: screen;isolation: isolate"/>
    <path id="Path_474" data-name="Path 474" d="M296.856,28.493a7.925,7.925,0,0,1,4.411,6.393,69.453,69.453,0,0,1,.37,7.2S300.271,31.033,296.856,28.493Z" transform="translate(-19.75 -2.289)" fill="#474747" style="mix-blend-mode: screen;isolation: isolate"/>
    <path id="Path_475" data-name="Path 475" d="M304.238,58.009s1.034.214,1.058,1.141-1.034,2.807-1.058,1.617A20.574,20.574,0,0,1,304.238,58.009Z" transform="translate(-23.184 -16.107)" fill="url(#linear-gradient-14)"/>
    <path id="Path_476" data-name="Path 476" d="M308.482,60.925a10.25,10.25,0,0,0-2.309-1c-.41-.141-.551.24-.6.564l2.984.951A.619.619,0,0,0,308.482,60.925Z" transform="translate(-23.831 -16.99)" fill="url(#radial-gradient-5)"/>
    <path id="Path_477" data-name="Path 477" d="M305.553,61.013a2.373,2.373,0,0,0-.023.4l2.931.763a.966.966,0,0,0,.077-.209Z" transform="translate(-23.811 -17.513)" fill="url(#linear-gradient-15)"/>
    <path id="Path_478" data-name="Path 478" d="M260.621,57.889s-1.1.214-1.125,1.141,1.1,2.806,1.125,1.617A19.19,19.19,0,0,0,260.621,57.889Z" transform="translate(-2.26 -16.05)" fill="url(#linear-gradient-16)"/>
    <path id="Path_479" data-name="Path 479" d="M257.077,59.806a10.27,10.27,0,0,0-2.309,1,.641.641,0,0,0-.065.559l2.979-.957C257.639,60.077,257.5,59.66,257.077,59.806Z" transform="translate(0 -16.934)" fill="url(#radial-gradient-6)"/>
    <path id="Path_480" data-name="Path 480" d="M254.733,61.918a.943.943,0,0,0,.065.167l2.932-.763a2.39,2.39,0,0,0-.018-.361Z" transform="translate(-0.031 -17.489)" fill="url(#linear-gradient-17)"/>
    <path id="Path_481" data-name="Path 481" d="M257.526,80.9a.282.282,0,0,0-.276.288v2.385a.282.282,0,0,0,.276.288Z" transform="translate(-1.209 -26.822)" fill="#595959"/>
    <path id="Path_482" data-name="Path 482" d="M257.784,103.34a.282.282,0,0,0-.275.288v2.385a.282.282,0,0,0,.275.288Z" transform="translate(-1.33 -37.328)" fill="#595959"/>
    <path id="Path_483" data-name="Path 483" d="M308.148,80.9a.282.282,0,0,1,.275.288v2.385a.282.282,0,0,1-.275.288Z" transform="translate(-25.036 -26.822)" fill="#595959"/>
    <path id="Path_484" data-name="Path 484" d="M307.891,103.34a.281.281,0,0,1,.274.288v2.385a.282.282,0,0,1-.274.288Z" transform="translate(-24.916 -37.328)" fill="#595959"/>
    <path id="Path_485" data-name="Path 485" d="M282.934,138.288h-7.149a.61.61,0,0,0-.5.271,46.69,46.69,0,0,0,8.156,0A.611.611,0,0,0,282.934,138.288Z" transform="translate(-9.651 -53.688)" fill="url(#linear-gradient-18)"/>
    <path id="Path_486" data-name="Path 486" d="M285.464,115.4a29.466,29.466,0,0,1-8.158.973c-.831,0-1.613-.03-2.349-.08-2.331,1.1-3.744,4.545-4.072,5.427a19.252,19.252,0,0,0,2.218.6,30.767,30.767,0,0,0,8.406,0,18.2,18.2,0,0,0,4.114-1.354A27.391,27.391,0,0,0,285.464,115.4Z" transform="translate(-7.592 -42.972)" fill="url(#linear-gradient-19)" style="mix-blend-mode: screen;isolation: isolate"/>
    <g id="Group_75" data-name="Group 75" transform="translate(265.717 54.015)">
      <g id="Group_72" data-name="Group 72" transform="translate(0)">
        <path id="Path_487" data-name="Path 487" d="M283.421,83.807h-7.977V80.783h7.977Zm-7.579-.4h7.18V81.181h-7.18Z" transform="translate(-275.444 -80.783)" fill="#3c2415"/>
      </g>
      <rect id="Rectangle_1489" data-name="Rectangle 1489" width="7.516" height="1.207" transform="translate(0.234 1.578)" fill="#c96e00"/>
      <rect id="Rectangle_1490" data-name="Rectangle 1490" width="7.516" height="1.207" transform="translate(0.234 0.209)" fill="#fbb040"/>
      <g id="Group_73" data-name="Group 73" transform="translate(0.517 1.806)">
        <rect id="Rectangle_1491" data-name="Rectangle 1491" width="0.99" height="0.443" transform="translate(1.003)" fill="#3c2415"/>
        <rect id="Rectangle_1492" data-name="Rectangle 1492" width="0.99" height="0.444" transform="translate(0 0.449)" fill="#3c2415"/>
        <rect id="Rectangle_1493" data-name="Rectangle 1493" width="0.989" height="0.444" transform="translate(5.953 0.449)" fill="#3c2415"/>
        <path id="Path_488" data-name="Path 488" d="M282.162,84.227h-.99v.429h-.958V85.1h.99v-.429h.942v.436h.989v-.443h-.974Z" transform="translate(-278.195 -84.201)" fill="#3c2415"/>
        <rect id="Rectangle_1494" data-name="Rectangle 1494" width="0.989" height="0.443" transform="translate(4.963 0.009)" fill="#3c2415"/>
      </g>
      <g id="Group_74" data-name="Group 74" transform="translate(0.517 0.288)">
        <rect id="Rectangle_1495" data-name="Rectangle 1495" width="0.99" height="0.443" transform="translate(1.003 0.462)" fill="#3c2415"/>
        <rect id="Rectangle_1496" data-name="Rectangle 1496" width="0.99" height="0.444" transform="translate(0 0.013)" fill="#3c2415"/>
        <rect id="Rectangle_1497" data-name="Rectangle 1497" width="0.989" height="0.444" transform="translate(5.953 0.013)" fill="#3c2415"/>
        <path id="Path_489" data-name="Path 489" d="M282.162,82.2h-.99v-.429h-.958v-.444h.99v.429h.942v-.436h.989v.443h-.974Z" transform="translate(-278.195 -81.324)" fill="#3c2415"/>
        <rect id="Rectangle_1498" data-name="Rectangle 1498" width="0.989" height="0.443" transform="translate(4.963 0.453)" fill="#3c2415"/>
      </g>
      <rect id="Rectangle_1499" data-name="Rectangle 1499" width="7.977" height="0.423" transform="translate(0 1.3)" fill="#66493a"/>
    </g>
    <path id="Path_490" data-name="Path 490" d="M283.7,80.593c0,.9-2.778,1.635-6.206,1.635s-6.206-.732-6.206-1.635,2.779-1.635,6.206-1.635S283.7,79.69,283.7,80.593Z" transform="translate(-7.783 -25.914)" fill="url(#radial-gradient-7)" style="mix-blend-mode: color-dodge;isolation: isolate"/>
    <path id="Path_491" data-name="Path 491" d="M283.706,84.278c0,.729-2.785,1.32-6.222,1.32s-6.222-.591-6.222-1.32,2.785-1.32,6.222-1.32S283.706,83.549,283.706,84.278Z" transform="translate(-7.769 -27.786)" fill="url(#radial-gradient-8)" style="mix-blend-mode: color-dodge;isolation: isolate"/>
  </g>
</svg>
